<svg id="Layer_1" viewBox="0 0 24 24" xmlns="http://www.w3.org/2000/svg" data-name="Layer 1"><path d="m20.488 2.926c-.087-.323-.332-.583-.648-.69-.15-.05-3.718-1.236-7.84-1.236-2.257 0-4.341.358-5.691.659-1.682.375-2.951 1.753-3.235 3.512-.284 1.754-.574 3.938-.574 6.829 0 3.458.401 6.322.524 7.117.295 1.914 1.819 3.391 3.705 3.592 1.82.193 3.593.292 5.271.292 4.08 0 7.546-.587 7.691-.612.396-.068.714-.367.805-.759.041-.176 1.004-4.384 1.004-9.628s-.971-8.92-1.012-9.074zm-15.44 2.564c.153-.946.818-1.683 1.695-1.878 1.252-.279 3.181-.611 5.256-.611 2.961 0 5.6.66 6.683.972.258 1.156.817 4.109.817 8.028 0 1.43-.077 2.788-.187 4h-11.312c-1.292 0-2.411.444-3.208 1.202-.162-1.48-.292-3.334-.292-5.202 0-2.75.277-4.834.548-6.51zm6.952 15.51c-1.607 0-3.309-.094-5.059-.28-.557-.059-1.055-.336-1.41-.75.17-1.448 1.372-1.969 2.469-1.969h11.089c-.146 1.096-.299 1.967-.406 2.518-1.186.167-3.802.482-6.684.482z"/><path d="m14.976 8.5h2.433c-.267-1.449-1.104-2.689-2.269-3.497-.299-.208-.69.084-.599.437.229.886.38 1.915.435 3.06z"/><path d="m15.139 13.997c1.165-.808 2.002-2.048 2.269-3.497h-2.433c-.056 1.145-.207 2.174-.435 3.06-.091.353.299.645.599.437z"/><path d="m9.459 5.44c.091-.353-.299-.645-.599-.437-1.165.808-2.002 2.048-2.269 3.497h2.433c.056-1.145.207-2.174.435-3.06z"/><path d="m8.861 13.997c.299.208.69-.084.599-.437-.229-.886-.38-1.915-.435-3.06h-2.433c.267 1.449 1.104 2.688 2.269 3.497z"/><path d="m12.526 5.577-.241-.723c-.091-.274-.478-.274-.569 0l-.241.723c-.314.943-.474 1.93-.474 2.923h2c0-.994-.16-1.981-.474-2.923z"/><path d="m11.715 14.146c.091.273.478.273.569 0l.241-.723c.314-.943.474-1.93.474-2.923h-2c0 .993.16 1.98.474 2.923l.241.723z"/></svg>